<?xml version="1.0" encoding="UTF-8" standalone="no"?>
<!-- Created with Inkscape (http://www.inkscape.org/) -->
<svg
   xmlns:dc="http://purl.org/dc/elements/1.1/"
   xmlns:cc="http://creativecommons.org/ns#"
   xmlns:rdf="http://www.w3.org/1999/02/22-rdf-syntax-ns#"
   xmlns:svg="http://www.w3.org/2000/svg"
   xmlns="http://www.w3.org/2000/svg"
   xmlns:xlink="http://www.w3.org/1999/xlink"
   xmlns:sodipodi="http://sodipodi.sourceforge.net/DTD/sodipodi-0.dtd"
   xmlns:inkscape="http://www.inkscape.org/namespaces/inkscape"
   width="744.09448"
   height="1052.3622"
   id="svg2"
   sodipodi:version="0.32"
   inkscape:version="0.46"
   sodipodi:docname="faces.svg"
   inkscape:output_extension="org.inkscape.output.svg.inkscape"
   version="1.0"
   style="display:inline">
  <defs
     id="defs4">
    <linearGradient
       id="linearGradient3323">
      <stop
         style="stop-color:#ffffff;stop-opacity:1;"
         offset="0"
         id="stop3325" />
      <stop
         style="stop-color:#f9c18a;stop-opacity:1;"
         offset="1"
         id="stop3327" />
    </linearGradient>
    <linearGradient
       id="linearGradient3317">
      <stop
         id="stop3319"
         offset="0"
         style="stop-color:#ffffff;stop-opacity:0.61960787;" />
      <stop
         id="stop3321"
         offset="1"
         style="stop-color:#f9c18a;stop-opacity:1;" />
    </linearGradient>
    <linearGradient
       id="linearGradient4398">
      <stop
         style="stop-color:#aa5a00;stop-opacity:0.61960787"
         offset="0"
         id="stop4400" />
      <stop
         style="stop-color:#ffd5d5;stop-opacity:0;"
         offset="1"
         id="stop4402" />
    </linearGradient>
    <inkscape:perspective
       sodipodi:type="inkscape:persp3d"
       inkscape:vp_x="0 : 526.18109 : 1"
       inkscape:vp_y="0 : 1000 : 0"
       inkscape:vp_z="744.09448 : 526.18109 : 1"
       inkscape:persp3d-origin="372.04724 : 350.78739 : 1"
       id="perspective10" />
    <linearGradient
       inkscape:collect="always"
       xlink:href="#linearGradient4398"
       id="linearGradient2516"
       gradientUnits="userSpaceOnUse"
       gradientTransform="matrix(-1,0,0,1,191.42857,-582.85713)"
       x1="217.13434"
       y1="331.34903"
       x2="191.42857"
       y2="424.98096" />
    <radialGradient
       inkscape:collect="always"
       xlink:href="#linearGradient3323"
       id="radialGradient3329"
       cx="100"
       cy="-79.756668"
       fx="100"
       fy="-79.756668"
       r="277.97171"
       gradientTransform="matrix(1,0,0,1.2940776,0,-4.4265022)"
       gradientUnits="userSpaceOnUse" />
  </defs>
  <sodipodi:namedview
     id="base"
     pagecolor="#ffffff"
     bordercolor="#666666"
     borderopacity="1.0"
     gridtolerance="10000"
     guidetolerance="10"
     objecttolerance="10"
     inkscape:pageopacity="0.0"
     inkscape:pageshadow="2"
     inkscape:zoom="0.49497475"
     inkscape:cx="231.41883"
     inkscape:cy="892.58059"
     inkscape:document-units="px"
     inkscape:current-layer="layer20"
     showgrid="true"
     inkscape:window-width="1024"
     inkscape:window-height="682"
     inkscape:window-x="-4"
     inkscape:window-y="-4"
     showguides="false">
    <inkscape:grid
       type="xygrid"
       id="grid2447" />
  </sodipodi:namedview>
  <metadata
     id="metadata7">
    <rdf:RDF>
      <cc:Work
         rdf:about="">
        <dc:format>image/svg+xml</dc:format>
        <dc:type
           rdf:resource="http://purl.org/dc/dcmitype/StillImage" />
      </cc:Work>
    </rdf:RDF>
  </metadata>
  <g
     inkscape:label="face0"
     inkscape:groupmode="layer"
     id="layer1"
     style="display:inline"
     sodipodi:insensitive="true">
    <path
       style="fill:url(#radialGradient3329);fill-opacity:1;fill-rule:evenodd;stroke:none;stroke-width:1px;stroke-linecap:butt;stroke-linejoin:miter;stroke-opacity:1"
       d="M -280.28572,28.5336 C -263.56686,238.02701 -95.12838,376.23947 -6.00001,374.24788 C 183.31099,327.63023 212.58466,228.9777 268.28571,37.10503 C 260.99572,-116.09532 286.87904,-284.63325 82.57142,-342.89497 C 82.57142,-342.89497 -94.57143,-345.75211 -108.85715,-342.89497 C -223.4615,-309.04529 -311.56103,-215.31682 -280.28572,28.5336 z"
       id="path2389"
       sodipodi:nodetypes="cccccc" />
  </g>
  <g
     inkscape:groupmode="layer"
     id="layer17"
     inkscape:label="facefeature6"
     style="display:none"
     sodipodi:insensitive="true">
    <path
       style="fill:none;fill-rule:evenodd;stroke:#aa5a00;stroke-width:10;stroke-linecap:butt;stroke-linejoin:miter;stroke-miterlimit:4;stroke-dasharray:none;stroke-opacity:0.61960784;display:inline"
       d="M 39.99999,-84.780668 C 34.56141,-31.579307 13.92128,2.5833822 -40,12.362183"
       id="path4387"
       sodipodi:nodetypes="cc" />
  </g>
  <g
     inkscape:groupmode="layer"
     id="layer18"
     inkscape:label="beard6"
     style="display:inline"
     sodipodi:insensitive="true">
    <path
       style="fill:none;fill-rule:evenodd;stroke:#aa5a00;stroke-width:10;stroke-linecap:butt;stroke-linejoin:miter;stroke-miterlimit:4;stroke-dasharray:none;stroke-opacity:0.61960784"
       d="M -60,298.07647 C -24.56711,312.56888 2.20391,314.29195 40,292.36218"
       id="path4393"
       sodipodi:nodetypes="cc" />
  </g>
  <g
     inkscape:groupmode="layer"
     id="layer21"
     inkscape:label="facefeature10"
     style="display:none"
     sodipodi:insensitive="true">
    <path
       style="fill:none;fill-rule:evenodd;stroke:#aa5a00;stroke-width:10;stroke-linecap:butt;stroke-linejoin:miter;stroke-miterlimit:4;stroke-dasharray:none;stroke-opacity:0.61960784;display:inline"
       d="M -94.95434,-67.241927 C -35.02393,-33.002927 5.49419,5.2898826 0,92.362183"
       id="path5870"
       sodipodi:nodetypes="cc" />
  </g>
  <g
     inkscape:groupmode="layer"
     id="layer22"
     inkscape:label="facefeature11"
     style="display:none"
     sodipodi:insensitive="true">
    <g
       id="g2518"
       transform="translate(-473.89779,-612.46552)">
      <path
         sodipodi:nodetypes="cc"
         id="path5878"
         d="M 424.64468,576.07526 C 484.57509,610.31426 525.09321,648.60707 519.59902,735.67937"
         style="fill:none;fill-rule:evenodd;stroke:#aa5a00;stroke-width:10;stroke-linecap:butt;stroke-linejoin:miter;stroke-miterlimit:4;stroke-dasharray:none;stroke-opacity:0.61960784;display:inline" />
      <path
         sodipodi:nodetypes="cc"
         id="path5882"
         d="M 434.65603,548.2076 C 505.78754,582.2644 553.87857,620.35343 547.35751,706.96236"
         style="fill:none;fill-rule:evenodd;stroke:#aa5a00;stroke-width:10.86547565;stroke-linecap:butt;stroke-linejoin:miter;stroke-miterlimit:4;stroke-dasharray:none;stroke-opacity:0.61960784;display:inline" />
      <path
         sodipodi:nodetypes="cc"
         id="path5890"
         d="M 496.93335,487.05106 C 446.19486,503.60493 412.59536,494.34162 393.89779,464.8277"
         style="fill:none;fill-rule:evenodd;stroke:#b45a00;stroke-width:10;stroke-linecap:butt;stroke-linejoin:miter;stroke-miterlimit:4;stroke-dasharray:none;stroke-opacity:0.61960784;display:inline" />
      <path
         id="path5892"
         d="M 541.38007,414.32007 C 529.09671,411.8634 562.82699,427.68577 571.68465,436.54343 C 573.78665,438.64543 574.46009,439.31887 575.72526,440.58404"
         style="fill:none;fill-rule:evenodd;stroke:#b45a00;stroke-width:10;stroke-linecap:butt;stroke-linejoin:miter;stroke-miterlimit:4;stroke-dasharray:none;stroke-opacity:0.61960784;display:inline" />
      <path
         sodipodi:nodetypes="cc"
         id="path5894"
         d="M 523.19732,440.58404 C 537.01375,452.16197 552.253,463.01871 557.54251,480.99014"
         style="fill:none;fill-rule:evenodd;stroke:#b45a00;stroke-width:10;stroke-linecap:butt;stroke-linejoin:miter;stroke-miterlimit:4;stroke-dasharray:none;stroke-opacity:0.61960784;display:inline" />
    </g>
  </g>
  <g
     inkscape:groupmode="layer"
     id="layer19"
     inkscape:label="facefeature8"
     style="display:none"
     sodipodi:insensitive="true">
    <path
       style="fill:url(#linearGradient2516);fill-opacity:1;fill-rule:evenodd;stroke:#000000;stroke-width:0;stroke-linecap:butt;stroke-linejoin:miter;stroke-miterlimit:4;stroke-dasharray:none;stroke-opacity:1;display:inline"
       d="M 48.57142,-250.49496 C -20.50082,-252.49893 -89.92636,-252.81461 -100,-167.63782 C -35.79391,-141.1168 49.97652,-172.41297 48.57142,-250.49496 z"
       id="path4406"
       sodipodi:nodetypes="ccc" />
  </g>
  <g
     inkscape:groupmode="layer"
     id="layer14"
     inkscape:label="facefeature3"
     style="display:none"
     sodipodi:insensitive="true">
    <g
       id="g2510"
       transform="translate(-514.78572,-550.82143)">
      <path
         transform="matrix(-1,0,0,1,713.35714,-7.0357114)"
         d="M 165.71429,562.36218 A 11.428572,10 0 1 1 142.85715,562.36218 A 11.428572,10 0 1 1 165.71429,562.36218 z"
         sodipodi:ry="10"
         sodipodi:rx="11.428572"
         sodipodi:cy="562.36218"
         sodipodi:cx="154.28572"
         id="path3817"
         style="opacity:1;fill:#aa5a00;fill-opacity:0.61842107;display:inline"
         sodipodi:type="arc" />
      <path
         transform="matrix(-1,0,0,1,664.78572,-5.6071414)"
         d="M 165.71429,562.36218 A 11.428572,10 0 1 1 142.85715,562.36218 A 11.428572,10 0 1 1 165.71429,562.36218 z"
         sodipodi:ry="10"
         sodipodi:rx="11.428572"
         sodipodi:cy="562.36218"
         sodipodi:cx="154.28572"
         id="path3819"
         style="opacity:1;fill:#aa5a00;fill-opacity:0.61842107;display:inline"
         sodipodi:type="arc" />
      <path
         transform="matrix(-1,0,0,1,686.21429,39.392859)"
         d="M 165.71429,562.36218 A 11.428572,10 0 1 1 142.85715,562.36218 A 11.428572,10 0 1 1 165.71429,562.36218 z"
         sodipodi:ry="10"
         sodipodi:rx="11.428572"
         sodipodi:cy="562.36218"
         sodipodi:cx="154.28572"
         id="path3821"
         style="opacity:1;fill:#aa5a00;fill-opacity:0.61842107;display:inline"
         sodipodi:type="arc" />
      <path
         transform="matrix(-1,0,0,1,637.64287,40.821429)"
         d="M 165.71429,562.36218 A 11.428572,10 0 1 1 142.85715,562.36218 A 11.428572,10 0 1 1 165.71429,562.36218 z"
         sodipodi:ry="10"
         sodipodi:rx="11.428572"
         sodipodi:cy="562.36218"
         sodipodi:cx="154.28572"
         id="path3823"
         style="opacity:1;fill:#aa5a00;fill-opacity:0.61842107;display:inline"
         sodipodi:type="arc" />
    </g>
  </g>
  <g
     inkscape:groupmode="layer"
     id="layer15"
     inkscape:label="facefeature4"
     style="display:none"
     sodipodi:insensitive="true">
    <path
       style="fill:#000000;fill-opacity:0;fill-rule:evenodd;stroke:#aa5a00;stroke-width:10;stroke-linecap:butt;stroke-linejoin:miter;marker-start:none;stroke-miterlimit:4;stroke-dasharray:none;stroke-opacity:0.61960784;display:inline"
       d="M -77.14286,-4.7806774 C -52.08406,128.01 82.09992,78.692253 80,-7.6378174"
       id="path4352"
       sodipodi:nodetypes="cc" />
  </g>
  <g
     inkscape:groupmode="layer"
     id="layer16"
     inkscape:label="facefeature5"
     style="display:none"
     sodipodi:insensitive="true">
    <path
       style="fill:none;fill-rule:evenodd;stroke:#aa5a00;stroke-width:10;stroke-linecap:butt;stroke-linejoin:miter;stroke-miterlimit:4;stroke-dasharray:none;stroke-opacity:0.61960784;display:inline"
       d="M 80,-27.637817 C -15.91809,-15.460497 -17.14285,56.309653 -17.14285,129.50505"
       id="path4356"
       sodipodi:nodetypes="cc" />
  </g>
  <g
     inkscape:groupmode="layer"
     id="layer10"
     inkscape:label="face7"
     style="display:none"
     sodipodi:insensitive="true">
    <path
       style="fill:url(#radialGradient3329);fill-rule:evenodd;stroke:none;stroke-width:1px;stroke-linecap:butt;stroke-linejoin:miter;stroke-opacity:1;display:inline"
       d="M -296.85715,26.36218 C -295.43158,414.65055 -103.63252,382.10002 6,380.64783 C 119.07697,374.03153 284.65201,379.77579 283.14288,32.07647 C 277.76518,-119.43314 302.25748,-283.29456 83.14285,-345.06639 C 83.14285,-345.06639 -65.42857,-350.78068 -79.71429,-347.92354 C -104.47769,-330.41197 -296.46122,-338.47834 -296.85715,26.36218 z"
       id="path3224"
       sodipodi:nodetypes="cccccc" />
  </g>
  <g
     inkscape:groupmode="layer"
     id="layer3"
     style="display:none"
     inkscape:label="face1"
     sodipodi:insensitive="true">
    <path
       style="fill:url(#radialGradient3329);fill-rule:evenodd;stroke:none;stroke-width:1px;stroke-linecap:butt;stroke-linejoin:miter;stroke-opacity:1"
       d="M -297.42858,27.10503 C -293.37957,248.2848 -108.79127,407.77351 -11.71429,369.96215 C 31.65706,373.65865 227.99035,395.09594 282.57142,32.81932 C 277.19374,-118.69029 301.686,-282.55171 82.57142,-344.32354 C 82.57142,-344.32354 -66,-350.03783 -80.28572,-347.18069 C -105.04912,-329.66912 -297.03265,-337.73549 -297.42858,27.10503 z"
       id="path3163"
       sodipodi:nodetypes="cccccc" />
  </g>
  <g
     inkscape:groupmode="layer"
     id="layer11"
     inkscape:label="facefeature0"
     style="display:none"
     sodipodi:insensitive="true" />
  <g
     inkscape:groupmode="layer"
     id="layer12"
     inkscape:label="facefeature1"
     style="display:none"
     sodipodi:insensitive="true">
    <path
       sodipodi:type="arc"
       style="opacity:1;fill:#ffd5d5;display:inline"
       id="path3283"
       sodipodi:cx="212.85715"
       sodipodi:cy="676.64789"
       sodipodi:rx="78.571426"
       sodipodi:ry="92.85714"
       d="M 291.42857,676.64789 A 78.571426,92.85714 0 1 1 134.28572,676.64789 A 78.571426,92.85714 0 1 1 291.42857,676.64789 z"
       transform="matrix(0.7979851,0.4998832,-0.4605734,0.8660928,139.02166,-659.65849)" />
  </g>
  <g
     inkscape:groupmode="layer"
     id="layer13"
     inkscape:label="facefeature2"
     style="display:none"
     sodipodi:insensitive="true">
    <path
       sodipodi:type="arc"
       style="opacity:1;fill:#ffd5d5;display:inline"
       id="path3288"
       sodipodi:cx="212.85715"
       sodipodi:cy="676.64789"
       sodipodi:rx="78.571426"
       sodipodi:ry="92.85714"
       d="M 291.42857,676.64789 A 78.571426,92.85714 0 1 1 134.28572,676.64789 A 78.571426,92.85714 0 1 1 291.42857,676.64789 z"
       transform="matrix(0.7979851,0.4998832,-0.4605734,0.8660928,133.07321,-665.79567)" />
    <path
       sodipodi:type="arc"
       style="opacity:1;fill:#e5ffff;fill-opacity:0.94078944;display:inline"
       id="path3807"
       sodipodi:cx="200"
       sodipodi:cy="336.64789"
       sodipodi:rx="65.714287"
       sodipodi:ry="61.42857"
       d="M 265.71429,336.64789 A 65.714287,61.42857 0 1 1 134.28571,336.64789 A 65.714287,61.42857 0 1 1 265.71429,336.64789 z"
       transform="matrix(0.8478261,0,0,0.7209302,-189.56522,-454.62316)" />
  </g>
  <g
     inkscape:groupmode="layer"
     id="layer9"
     inkscape:label="face6"
     style="display:none"
     sodipodi:insensitive="true">
    <path
       style="fill:url(#radialGradient3329);fill-rule:evenodd;stroke:none;stroke-width:1px;stroke-linecap:butt;stroke-linejoin:miter;stroke-opacity:1;display:inline"
       d="M -296.85715,27.505 C -278.63148,319.3789 -129.70249,353.9987 -11.14286,370.3622 C 86.52451,364.0205 246.69602,321.2736 283.14282,33.2193 C 277.76512,-118.29028 302.25742,-282.1517 83.14285,-343.92353 C 83.14285,-343.92353 -65.42857,-349.63782 -79.71429,-346.78068 C -104.47769,-329.26911 -296.46122,-337.33548 -296.85715,27.505 z"
       id="path3221"
       sodipodi:nodetypes="cccccc" />
  </g>
  <g
     inkscape:groupmode="layer"
     id="layer6"
     inkscape:label="face4"
     style="display:none"
     sodipodi:insensitive="true">
    <path
       style="fill:url(#radialGradient3329);fill-rule:evenodd;stroke:none;stroke-width:1px;stroke-linecap:butt;stroke-linejoin:miter;stroke-opacity:1;display:inline"
       d="M -297.14286,26.6479 C -312.80049,239.1876 -49.95723,374.64561 -11.42857,369.50502 C 59.77199,369.66995 287.09939,208.39135 282.85714,32.36219 C 277.47944,-119.14742 301.97174,-283.00884 82.85714,-344.78067 C 82.85714,-344.78067 -65.71428,-350.49496 -80,-347.63782 C -104.7634,-330.12625 -296.74693,-338.19262 -297.14286,26.6479 z"
       id="path3215"
       sodipodi:nodetypes="cccccc" />
  </g>
  <g
     inkscape:groupmode="layer"
     id="layer4"
     inkscape:label="face2"
     style="display:none"
     sodipodi:insensitive="true">
    <path
       style="fill:url(#radialGradient3329);fill-rule:evenodd;stroke:none;stroke-width:1px;stroke-linecap:butt;stroke-linejoin:miter;stroke-opacity:1;display:inline"
       d="M -255.14286,27.50504 C -201.65108,319.37887 -111.41298,353.99874 -9.42857,370.36216 C 82.88183,364.0205 191.33207,321.27363 250.57143,33.21933 C 245.19375,-118.29028 303.97172,-282.1517 84.85714,-343.92353 C 84.85714,-343.92353 -63.71428,-349.63782 -78,-346.78068 C -102.7634,-329.26911 -254.74693,-337.33548 -255.14286,27.50504 z"
       id="path3206"
       sodipodi:nodetypes="cccccc" />
  </g>
  <g
     inkscape:groupmode="layer"
     id="layer8"
     inkscape:label="face5"
     style="display:none"
     sodipodi:insensitive="true">
    <path
       style="fill:url(#radialGradient3329);fill-rule:evenodd;stroke:none;stroke-width:1px;stroke-linecap:butt;stroke-linejoin:miter;stroke-opacity:1;display:inline"
       d="M -296,27.79076 C -227.76614,388.81414 -172.11449,380.96975 -13.14285,384.93359 C 136.66614,368.60537 254.32974,467.24582 284,33.50505 C 307.19373,-229.43313 303.1146,-281.86598 84,-343.63781 C 84,-343.63781 -64.57142,-349.3521 -78.85714,-346.49496 C -103.65276,-328.96728 -347.1956,-341.254 -296,27.79076 z"
       id="path3218"
       sodipodi:nodetypes="cccccc" />
  </g>
  <g
     inkscape:groupmode="layer"
     id="layer5"
     inkscape:label="face3"
     style="display:none"
     sodipodi:insensitive="true">
    <path
       style="fill:url(#radialGradient3329);fill-rule:evenodd;stroke:none;stroke-width:1px;stroke-linecap:butt;stroke-linejoin:miter;stroke-opacity:1;display:inline"
       d="M -295.14286,26.64789 C -350.21437,361.27841 -136.2233,357.9454 -9.42857,369.50501 C 117.67078,370.84126 380.28182,354.81774 284.85714,32.36218 C 279.47946,-119.14743 303.97177,-283.00885 84.85714,-344.78068 C 84.85714,-344.78068 -63.71428,-350.49497 -78,-347.63783 C -102.7634,-330.12626 -294.74693,-338.19263 -295.14286,26.64789 z"
       id="path3209"
       sodipodi:nodetypes="cccccc" />
  </g>
  <g
     inkscape:groupmode="layer"
     id="layer20"
     inkscape:label="beard5"
     style="display:inline">
    <path
       style="opacity:1;fill:#000000;fill-opacity:1;fill-rule:nonzero;stroke:none;stroke-width:4;stroke-linecap:round;stroke-linejoin:round;stroke-miterlimit:4;stroke-dasharray:none;stroke-dashoffset:0;stroke-opacity:1"
       d="M -300,92.362183 C -293.31667,70.716346 -287.61676,47.841229 -260,52.362183 C -111.55831,-87.970174 38.794234,-213.58888 240,52.362183 C 280.2161,52.218115 291.5976,71.297119 300,92.362183 C 279.35975,296.30854 187.56845,413.03749 0,412.36218 C -220.78264,419.94936 -276.38368,271.28368 -300,92.362183 z"
       id="path2439"
       sodipodi:nodetypes="cccccc" />
    <path
       style="fill:#000000;fill-opacity:0.45394736;fill-rule:evenodd;stroke:#000000;stroke-width:1px;stroke-linecap:butt;stroke-linejoin:miter;stroke-opacity:1;display:inline"
       d="M 291.42857,80.93361 C 278.37379,246.47649 158.01061,403.39042 73.3053,368.38105 C 56.37799,368.38105 22.04971,342.95392 3.34735,342.95392 C -16.65265,342.95392 -28.57143,367.19758 -48.57143,367.19758 C -241.12783,376.60136 -257.27619,211.95794 -291.42857,83.79075 C -306.53725,63.64584 -295.64646,154.94803 -300,172.36218 C -254.0806,607.4953 417.43108,483.95505 291.42857,80.93361 z"
       id="path4410"
       sodipodi:nodetypes="ccscccc" />
  </g>
</svg>
