<?xml version="1.0" encoding="UTF-8" standalone="no"?><svg width="744" height="1052">    <defs id="defs52" >
        <inkscape:perspective inkscape:vp_y="0 : 1000 : 0" inkscape:vp_z="744.09448 : 526.18109 : 1" sodipodi:type="inkscape:persp3d" inkscape:persp3d-origin="372.04724 : 350.78739 : 1" id="perspective3875" inkscape:vp_x="0 : 526.18109 : 1" />
        <linearGradient id="haircolor" y1="10" x1="0" y2="0" x2="10" >
            <stop offset="100%" stop-color="brown" id="stop54" />
        </linearGradient>
        <linearGradient id="undercolor" y1="10" x1="0" y2="0" x2="10" >
            <stop offset="100%" stop-color="brown" id="stop54" />
        </linearGradient>
        <linearGradient id="molecolor" y1="10" x1="0" y2="0" x2="10" >
            <stop offset="100%" stop-color="red" id="stop55" />
        </linearGradient>
        <linearGradient id="lipcolorlight" y1="10" x1="0" y2="0" x2="10" >
            <stop offset="100%" stop-color="red" id="stop58" />
        </linearGradient>
        <linearGradient id="lipcolordark" y1="10" x1="0" y2="0" x2="10" >
            <stop offset="100%" stop-color="brown" id="stop61" />
        </linearGradient>
        <linearGradient id="mustachcolor" y1="10" x1="0" y2="0" x2="10" >
            <stop offset="100%" stop-color="brown" id="stop64" />
        </linearGradient>
        <linearGradient id="grovecolor" y1="10" x1="0" y2="0" x2="10" >
            <stop offset="100%" stop-color="yellow" id="stop67" />
        </linearGradient>
        <linearGradient id="blushercolor" y1="10" x1="0" y2="0" x2="10" >
            <stop offset="100%" stop-color="pink" id="stop70" />
        </linearGradient>
        <linearGradient id="shadowcolor" y1="10" x1="0" y2="0" x2="10" >
            <stop offset="100%" stop-color="cyan" id="stop73" />
        </linearGradient>
        <linearGradient id="eyecolor" y1="10" x1="0" y2="0" x2="10" >
            <stop offset="100%" stop-color="black" id="stop76" />
        </linearGradient>
        <linearGradient id="glassescolor" y1="10" x1="0" y2="0" x2="10" >
            <stop offset="100%" style="stop-color:#00ff00;stop-opacity:0.3" id="stop79" />
        </linearGradient>
        <linearGradient id="glassesbordercolor" y1="10" x1="0" y2="0" x2="10" >
            <stop offset="100%" stop-color="red" id="stop3150" />
        </linearGradient>
        <linearGradient id="beardcolor" y1="10" x1="0" y2="0" x2="10" >
            <stop offset="100%" stop-color="brown" id="stop82" />
        </linearGradient>
        <linearGradient id="browcolor" y1="10" x1="0" y2="0" x2="10" >
            <stop offset="100%" stop-color="brown" id="stop85" />
        </linearGradient>
        <linearGradient id="facecolorhelper" >
            <stop offset="0" style="stop-color:#ffffff;stop-opacity:1;" id="stop3325" />
            <stop offset="1" style="stop-color:#f9c18a;stop-opacity:1;" id="stop3327" />
        </linearGradient>
        <radialGradient fx="100" fy="-79.756668" cx="100" cy="-79.756668" inkscape:collect="always" gradientTransform="matrix(1,0,0,1.2940776,4.5556805,27.463261)" xlink:href="#facecolorhelper" id="facecolor" r="277.97171" gradientUnits="userSpaceOnUse" />
    </defs>
<defs><g id="face0">
    <path sodipodi:nodetypes="cccccc" style="fill:url(#facecolor);fill-opacity:1;fill-rule:evenodd;stroke:none;stroke-width:1px;stroke-linecap:butt;stroke-linejoin:miter;stroke-opacity:1" id="path2389" d="M -273.4522,23.97792 C -218.01006,292.69517 -35.904534,373.96163 0.8335107,378.80356 C 42.084894,382.2984 178.41706,329.20267 286.50843,18.882308 C 279.21844,-134.31804 291.43472,-252.74349 87.1271,-311.00521 C 87.1271,-311.00521 -90.01575,-313.86235 -104.30147,-311.00521 C -218.90582,-277.15553 -304.72751,-219.8725 -273.4522,23.97792 z " />
</g><g id="feature0">
</g><g id="under0">
    <path sodipodi:nodetypes="cscccccc" style="fill:url(undercolor);fill-opacity:1;fill-rule:nonzero;stroke:none;stroke-width:4;stroke-linecap:round;stroke-linejoin:round;stroke-miterlimit:4;stroke-dasharray:none;stroke-dashoffset:0;stroke-opacity:1;display:inline" id="path3455" d="M -324.286,6.7105 C -329.6803,84.2657 -317.2349,196.4724 -345.4677,269.9323 C -361.5223,311.7054 -384.1959,336.607 -392.8574,366.7105 C -305.0524,416.2572 -204.2813,400.9731 -101.4288,375.2819 C -45.0756,372.7434 -2.451,366.2824 104.2854,378.1391 C 226.6187,422.441 351.0592,412.2163 392.8569,352.4248 C 315.8324,296.5805 310.9138,198.5009 324.2854,9.5676 C 123.5683,-393.6922 -93.0942,-382.3717 -324.286,6.7105 z " />
    </g><g id="hair0">
    <path sodipodi:nodetypes="cccccc" style="fill:url(haircolor);fill-opacity:1;fill-rule:nonzero;stroke:none;stroke-width:4;stroke-linecap:round;stroke-linejoin:round;stroke-miterlimit:4;stroke-dasharray:none;stroke-dashoffset:0;stroke-opacity:1;display:inline" id="path3453" d="M -315.7146,155.2819 C -216.7109,20.179 -235.5835,-116.4094 147.1426,-201.8609 C 153.9443,-47.6832 267.2599,90.4262 307.1426,140.9962 C 292.1043,265.9903 455.6878,-279.0411 95.714,-387.5752 C 31.9045,-409.2823 -31.9051,-403.7941 -95.7146,-387.5752 C -372.6665,-282.7001 -337.3563,-48.1676 -315.7146,155.2819 z " />
</g><g id="brow0">
    <path sodipodi:nodetypes="ccccc" style="fill:#000000;fill-opacity:1;fill-rule:evenodd;stroke:#000000;stroke-width:1px;stroke-linecap:butt;stroke-linejoin:miter;stroke-opacity:1" id="path3265" d="M -63.979578,25.94579 L -63.979578,32.0067 C -15.422848,3.8934704 45.527382,-46.6014 111.78696,-2.3384796 L 107.74635,-14.46031 C 33.021902,-59.67829 -13.508728,-6.4496696 -63.979578,25.94579 z" />
</g><g id="eye0">
    <path sodipodi:nodetypes="ccc" style="fill:#ffffff;fill-opacity:0;fill-rule:evenodd;stroke:#000000;stroke-width:10;stroke-miterlimit:4;stroke-dasharray:none;stroke-opacity:1" id="path562" d="M -56.524251,31.081349 L 54.592529,28.050888 C 51.146139,-33.533631 -29.399101,-55.670371 -56.524251,31.081349 z" />
    <path sodipodi:open="true" sodipodi:end="6.2836108" sodipodi:type="arc" sodipodi:cx="475.78186" sodipodi:cy="456.37219" style="fill:#000000;fill-opacity:1;fill-rule:evenodd;stroke:none;stroke-width:10;stroke-miterlimit:4;stroke-dasharray:none;stroke-opacity:0.7254902" sodipodi:rx="23.233509" id="path3247" sodipodi:ry="23.233509" d="M 499.01537,456.38353 A 23.233509,23.233509 0 1 1 499.01537,456.38208" sodipodi:start="0.00048789515" transform="matrix(1.2391304,0,0,1.2826087,-590.01656,-585.07524)" />
    <path style="fill:none;fill-opacity:0.7254902;fill-rule:evenodd;stroke:#000000;stroke-width:10;stroke-miterlimit:4;stroke-dasharray:none;stroke-opacity:1" id="path3253" d="M 46.511309,-7.304451 L 72.775279,-26.497351" />
</g><g id="nose3">
    <path sodipodi:nodetypes="cc" style="opacity:1;fill:none;fill-opacity:1;fill-rule:evenodd;stroke:#000000;stroke-width:16;stroke-miterlimit:4;stroke-dasharray:none;stroke-opacity:1" id="path759" d="M -72.28571,-11.923515 C -36.99868,83.467525 26.79334,81.172895 56.28573,-13.352085" />
</g><g id="lip0">
    <g id="g3485" transform="translate(-357.99999,-688.99998)" >
        <g style="display:inline" id="g835" transform="translate(0,0.637588)" >
            <g style="display:inline" id="g3479" transform="matrix(1.1123681,0,0,1.1849205,-40.0087,-137.38859)" >
                <path sodipodi:nodetypes="cccc" style="opacity:1;fill:url(#lipcolorlight);fill-opacity:1;fill-rule:evenodd;stroke:#aa0000;stroke-width:1;stroke-miterlimit:4;stroke-dasharray:none;stroke-opacity:1" id="path3481" d="M 274,690.36218 C 334.33147,681.54527 388.66531,679.33134 449,688.36218 C 423.14979,704.24101 420.98953,714.29757 360.40407,719.6743 C 294.48104,717.75326 287.0577,704.38094 274,690.36218 z" />
                <path sodipodi:nodetypes="cccc" style="opacity:1;fill:url(#lipcolordark);fill-opacity:1;fill-rule:evenodd;stroke:#aa0000;stroke-width:1;stroke-miterlimit:4;stroke-dasharray:none;stroke-opacity:1" id="path3483" d="M 272,688.36218 C 315.02113,656.07619 403.17987,658.44166 449,687.36218 C 422.5919,690.94702 399.566,684.45785 360.30306,686.07885 C 318.06259,685.46711 288.35278,695.50345 272,688.36218 z" />
            </g>
        </g>
    </g>
</g><g id="glasses0">
</g><g id="mustach0">
</g><g id="beard0">
</g></defs><g id="under"><defs><use xlink:href="#under0" transform="scale(1,1) rotate(0) " id="under0tmp"/></defs><use xlink:href="#under0tmp"  x="372" y="526" /></g><g id="face"><defs><use xlink:href="#face0" transform="scale(1,1) rotate(0) " id="face0tmp"/></defs><use xlink:href="#face0tmp"  x="372" y="526" /></g><g id="feature"><defs><use xlink:href="#feature0" transform="scale(1,1) rotate(0) " id="feature0tmp"/></defs><use xlink:href="#feature0tmp"  x="491.04" y="657.5" /><defs><use xlink:href="#feature0" id="feature0mirrortmp" transform="scale(-1,1) rotate(0)"/></defs><use xlink:href="#feature0mirrortmp"  x="252.96" y="657.5" /></g><g id="brow"><defs><use xlink:href="#brow0" transform="scale(1,1) rotate(0) " id="brow0tmp"/></defs><use xlink:href="#brow0tmp"  x="498.48" y="473.4" /><defs><use xlink:href="#brow0" id="brow0mirrortmp" transform="scale(-1,1) rotate(0)"/></defs><use xlink:href="#brow0mirrortmp"  x="245.52" y="473.4" /></g><g id="eye"><defs><use xlink:href="#eye0" transform="scale(1,1) rotate(0) " id="eye0tmp"/></defs><use xlink:href="#eye0tmp"  x="498.48" y="526" /><defs><use xlink:href="#eye0" id="eye0mirrortmp" transform="scale(-1,1) rotate(0)"/></defs><use xlink:href="#eye0mirrortmp"  x="245.52" y="526" /></g><g id="nose"><defs><use xlink:href="#nose3" transform="scale(1,1) rotate(0) " id="nose3tmp"/></defs><use xlink:href="#nose3tmp"  x="372" y="631.2" /></g><g id="lip"><defs><use xlink:href="#lip0" transform="scale(1,1) rotate(0) " id="lip0tmp"/></defs><use xlink:href="#lip0tmp"  x="372" y="767.96" /></g><g id="mustach"><defs><use xlink:href="#mustach0" transform="scale(1,1) rotate(0) " id="mustach0tmp"/></defs><use xlink:href="#mustach0tmp"  x="372" y="736.4" /></g><g id="beard"><defs><use xlink:href="#beard0" transform="scale(1,1) rotate(0) " id="beard0tmp"/></defs><use xlink:href="#beard0tmp"  x="372" y="946.8" /></g><g id="hair"><defs><use xlink:href="#hair0" transform="scale(1,1) rotate(0) " id="hair0tmp"/></defs><use xlink:href="#hair0tmp"  x="372" y="526" /></g><g id="glasses"><defs><use xlink:href="#glasses0" transform="scale(1,1) rotate(0) " id="glasses0tmp"/></defs><use xlink:href="#glasses0tmp"  x="372" y="526" /></g></svg>